Coordinates
version=1
nRows=10
nColumns=34
inDegrees=yes

Units are S.I. units (second, meters, Newtons, ...)
If the header above contains a line with 'inDegrees', this indicates whether rotational values are in degrees (yes) or radians (no).

endheader
time	pelvis_tilt	pelvis_list	pelvis_rotation	pelvis_tx	pelvis_ty	pelvis_tz	hip_flexion_r	hip_adduction_r	hip_rotation_r	knee_angle_r	ankle_angle_r	subtalar_angle_r	mtp_angle_r	hip_flexion_l	hip_adduction_l	hip_rotation_l	knee_angle_l	ankle_angle_l	subtalar_angle_l	mtp_angle_l	lumbar_extension	lumbar_bending	lumbar_rotation	arm_flex_r	arm_add_r	arm_rot_r	elbow_flex_r	pro_sup_r	arm_flex_l	arm_add_l	arm_rot_l	elbow_flex_l	pro_sup_l
      2.30000000	     -8.92683659	     -4.74505728	     13.84711028	      1.96605868	      0.85043218	     -0.10296976	     31.51992312	     -9.40704124	    -16.86780110	     14.27610993	      4.30792678	     -4.90572352	      0.00000000	    -11.44896456	    -10.21371351	     -5.36821031	      3.41627109	      3.40589541	      5.30618308	      0.00000000	     -3.63322315	     -0.32626873	    -10.29503604	     26.02773366	    -18.55909406	     16.04323007	     85.32301505	     94.35853963	     22.61969800	    -17.29257242	     16.48325943	     97.35384797	     94.32444368
      2.31666670	     -8.93676242	     -4.67659993	     13.96546771	      1.98013482	      0.84718369	     -0.10211735	     31.51047399	     -8.98483105	    -16.71548668	     10.40951481	      3.88883149	     -4.74421643	      0.00000000	    -12.69841174	    -10.37181527	     -5.01330012	      3.31937816	      2.13047495	      5.48547772	      0.00000000	     -4.64105931	      0.01821081	    -10.68568358	     20.13669606	    -16.76598671	     13.21075360	     79.38204187	     94.04743457	     18.05261199	    -16.41740171	     14.46480643	     91.31690760	     92.81908504
      2.33333330	     -8.75167740	     -4.74560575	     14.06557870	      1.99314095	      0.84362759	     -0.09963518	     31.31610218	     -8.28250697	    -16.35000237	      8.00129129	      3.64632387	     -4.89632522	      0.00000000	    -13.80297898	    -10.74473337	     -4.77141630	      3.48576776	      1.43464226	      5.53728689	      0.00000000	     -5.61407058	      0.79773421	    -10.69509012	     15.28884019	    -14.97546295	     10.71622047	     72.23449188	     93.87681040	     14.75487298	    -15.57448107	     12.52507062	     84.06337664	     91.57090193
      2.35000000	     -8.60866487	     -4.87944337	     14.16207147	      2.00690578	      0.83869128	     -0.09641425	     31.24814134	     -7.43752143	    -15.70298897	      7.24741736	      3.49518874	     -5.49624633	      0.00000000	    -14.57575298	    -11.24368026	     -4.72679010	      3.95145512	      1.07354585	      5.32920211	      0.00000000	     -6.23389338	      1.70233612	    -10.56596936	     11.25983064	    -12.98399823	      8.17089079	     64.13560476	     93.83734963	     11.93970147	    -14.81602190	     10.62745685	     75.98901791	     90.51497304
      2.36666670	     -8.56644824	     -5.11880706	     14.25257417	      2.02492487	      0.83130656	     -0.09374668	     31.30033011	     -6.46518989	    -14.79237278	      7.94066297	      3.36661755	     -6.53485311	      0.00000000	    -15.06642118	    -11.92095018	     -4.94276987	      4.77058832	      0.71244975	      4.99090576	      0.00000000	     -6.39532197	      2.73066575	    -10.53413091	      7.78552636	    -11.09072063	      5.49498123	     55.74728472	     93.92008388	      9.01925088	    -14.18650493	      8.95329102	     67.91139196	     89.69920325
      2.38333330	     -8.59070090	     -5.51486241	     14.29929682	      2.04796221	      0.82088703	     -0.09093527	     31.35279221	     -5.33604021	    -13.83502573	      9.62168700	      2.84846481	     -7.76169063	      0.00000000	    -15.44109043	    -12.89355638	     -5.68080014	      5.95539126	     -0.00281445	      4.66961037	      0.00000000	     -6.11543896	      3.84699485	    -10.77739219	      4.49179098	     -9.38930471	      3.00728200	     47.86677340	     93.95473243	      5.70411909	    -13.75488810	      7.42862130	     60.36350821	     89.25304284
      2.40000000	     -8.73163831	     -5.97046507	     14.31494431	      2.07153468	      0.81334989	     -0.08662394	     31.51223286	     -4.23036174	    -12.92131833	     11.99330001	      2.20133371	     -9.18517234	      0.00000000	    -15.56151124	    -14.09388659	     -6.40213084	      7.64978771	     -0.83040317	      4.40600754	      0.00000000	     -5.52438061	      4.81378227	    -11.03532423	      1.41813817	     -8.04744466	      0.94715233	     40.08541052	     93.92203351	      2.25094883	    -13.37736888	      6.19609227	     53.02624033	     89.06071903
      2.41666670	     -8.81068434	     -6.36842337	     14.24031068	      2.09242047	      0.81238144	     -0.08022959	     31.54887071	     -3.15253363	    -12.10562231	     14.48991006	      1.22676158	    -10.50792303	      0.00000000	    -15.50963267	    -15.41820688	     -7.20033322	      9.73372766	     -2.29831833	      3.92565550	      0.00000000	     -5.00275055	      5.61228525	    -11.29577314	     -1.23653382	     -6.88876075	     -0.41886669	     32.71216060	     93.60268528	     -0.75324378	    -13.00335988	      5.11047177	     45.78465810	     88.96930490
      2.43333330	     -8.77727759	     -6.68072043	     14.10549966	      2.11129636	      0.81658597	     -0.07275994	     31.40096142	     -2.07713636	    -11.39638234	     16.82656962	      0.33894760	    -11.80769925	      0.00000000	    -15.16416966	    -16.72291730	     -7.58776387	     12.17521090	     -4.53261017	      2.91927714	      0.00000000	     -4.74414354	      6.20032232	    -11.43712909	     -3.66901004	     -5.87199937	     -1.31801302	     26.31820167	     92.84593696	     -3.17393350	    -12.65139015	      4.12328905	     38.99425728	     88.81744851
      2.45000000	     -8.55405921	     -6.93113458	     13.94109094	      2.13096110	      0.82034739	     -0.06583133	     30.96338737	     -0.97339266	    -10.82747319	     18.87983697	     -0.13539905	    -13.12923877	      0.00000000	    -14.57912113	    -17.90095837	     -7.31614108	     14.98856065	     -7.41554343	      1.16501025	      0.00000000	     -4.83245810	      6.65910327	    -11.39681831	     -6.12702961	     -4.94577354	     -2.19242820	     21.75486258	     91.53463416	     -5.30925522	    -12.37546733	      3.17070526	     33.23827147	     88.50862594
